<svg xmlns="http://www.w3.org/2000/svg" version="1.1" xmlns:xlink="http://www.w3.org/1999/xlink" xmlns:svgjs="http://svgjs.com/svgjs" width="" height="560" preserveAspectRatio="none" viewBox="0 0 1440 560"><g mask="url(&quot;#SvgjsMask1026&quot;)" fill="none"><rect width="1440" height="560" x="0" y="0" fill="rgba(13, 110, 253, 1)"></rect><path d="M-52.83 550.09L-52.83 550.09" stroke="rgba(255, 255, 255, 1)" stroke-width="1.5"></path><path d="M-52.83 550.09L-78.85 691.37" stroke="rgba(255, 255, 255, 1)" stroke-width="1.5"></path><path d="M-52.83 550.09L94.57 533.71" stroke="rgba(255, 255, 255, 1)" stroke-width="1.5"></path><path d="M-78.85 691.37L-78.85 691.37" stroke="rgba(255, 255, 255, 1)" stroke-width="1.5"></path><path d="M-78.85 691.37L59.83 707.25" stroke="rgba(255, 255, 255, 1)" stroke-width="1.5"></path><path d="M-78.85 691.37L94.57 533.71" stroke="rgba(255, 255, 255, 1)" stroke-width="1.5"></path><path d="M-78.85 691.37L54.19 406.13" stroke="rgba(255, 255, 255, 1)" stroke-width="1.5"></path><path d="M-78.85 691.37L208.31 561.05" stroke="rgba(255, 255, 255, 1)" stroke-width="1.5"></path><path d="M54.19 406.13L54.19 406.13" stroke="rgba(255, 255, 255, 1)" stroke-width="1.5"></path><path d="M54.19 406.13L94.57 533.71" stroke="rgba(255, 255, 255, 1)" stroke-width="1.5"></path><path d="M54.19 406.13L-52.83 550.09" stroke="rgba(255, 255, 255, 1)" stroke-width="1.5"></path><path d="M54.19 406.13L234.33 361.9" stroke="rgba(255, 255, 255, 1)" stroke-width="1.5"></path><path d="M54.19 406.13L208.31 561.05" stroke="rgba(255, 255, 255, 1)" stroke-width="1.5"></path><path d="M54.19 406.13L59.83 707.25" stroke="rgba(255, 255, 255, 1)" stroke-width="1.5"></path><path d="M54.19 406.13L359.21 363.29" stroke="rgba(255, 255, 255, 1)" stroke-width="1.5"></path><path d="M94.57 533.71L94.57 533.71" stroke="rgba(255, 255, 255, 1)" stroke-width="1.5"></path><path d="M94.57 533.71L208.31 561.05" stroke="rgba(255, 255, 255, 1)" stroke-width="1.5"></path><path d="M94.57 533.71L59.83 707.25" stroke="rgba(255, 255, 255, 1)" stroke-width="1.5"></path><path d="M59.83 707.25L59.83 707.25" stroke="rgba(255, 255, 255, 1)" stroke-width="1.5"></path><path d="M59.83 707.25L-52.83 550.09" stroke="rgba(255, 255, 255, 1)" stroke-width="1.5"></path><path d="M59.83 707.25L208.31 561.05" stroke="rgba(255, 255, 255, 1)" stroke-width="1.5"></path><path d="M234.33 361.9L234.33 361.9" stroke="rgba(255, 255, 255, 1)" stroke-width="1.5"></path><path d="M234.33 361.9L359.21 363.29" stroke="rgba(255, 255, 255, 1)" stroke-width="1.5"></path><path d="M234.33 361.9L208.31 561.05" stroke="rgba(255, 255, 255, 1)" stroke-width="1.5"></path><path d="M234.33 361.9L393.85 510.11" stroke="rgba(255, 255, 255, 1)" stroke-width="1.5"></path><path d="M234.33 361.9L94.57 533.71" stroke="rgba(255, 255, 255, 1)" stroke-width="1.5"></path><path d="M208.31 561.05L208.31 561.05" stroke="rgba(255, 255, 255, 1)" stroke-width="1.5"></path><path d="M208.31 561.05L261.09 642.22" stroke="rgba(255, 255, 255, 1)" stroke-width="1.5"></path><path d="M261.09 642.22L261.09 642.22" stroke="rgba(255, 255, 255, 1)" stroke-width="1.5"></path><path d="M261.09 642.22L340.41 689.05" stroke="rgba(255, 255, 255, 1)" stroke-width="1.5"></path><path d="M261.09 642.22L393.85 510.11" stroke="rgba(255, 255, 255, 1)" stroke-width="1.5"></path><path d="M261.09 642.22L94.57 533.71" stroke="rgba(255, 255, 255, 1)" stroke-width="1.5"></path><path d="M261.09 642.22L59.83 707.25" stroke="rgba(255, 255, 255, 1)" stroke-width="1.5"></path><path d="M261.09 642.22L487.75 550.26" stroke="rgba(255, 255, 255, 1)" stroke-width="1.5"></path><path d="M359.21 363.29L359.21 363.29" stroke="rgba(255, 255, 255, 1)" stroke-width="1.5"></path><path d="M359.21 363.29L393.85 510.11" stroke="rgba(255, 255, 255, 1)" stroke-width="1.5"></path><path d="M359.21 363.29L522.93 403.47" stroke="rgba(255, 255, 255, 1)" stroke-width="1.5"></path><path d="M359.21 363.29L487.75 550.26" stroke="rgba(255, 255, 255, 1)" stroke-width="1.5"></path><path d="M359.21 363.29L208.31 561.05" stroke="rgba(255, 255, 255, 1)" stroke-width="1.5"></path><path d="M393.85 510.11L393.85 510.11" stroke="rgba(255, 255, 255, 1)" stroke-width="1.5"></path><path d="M393.85 510.11L487.75 550.26" stroke="rgba(255, 255, 255, 1)" stroke-width="1.5"></path><path d="M393.85 510.11L522.93 403.47" stroke="rgba(255, 255, 255, 1)" stroke-width="1.5"></path><path d="M393.85 510.11L523.21 639.7" stroke="rgba(255, 255, 255, 1)" stroke-width="1.5"></path><path d="M393.85 510.11L340.41 689.05" stroke="rgba(255, 255, 255, 1)" stroke-width="1.5"></path><path d="M340.41 689.05L340.41 689.05" stroke="rgba(255, 255, 255, 1)" stroke-width="1.5"></path><path d="M340.41 689.05L208.31 561.05" stroke="rgba(255, 255, 255, 1)" stroke-width="1.5"></path><path d="M522.93 403.47L522.93 403.47" stroke="rgba(255, 255, 255, 1)" stroke-width="1.5"></path><path d="M522.93 403.47L649.11 379.22" stroke="rgba(255, 255, 255, 1)" stroke-width="1.5"></path><path d="M522.93 403.47L639.49 489.59" stroke="rgba(255, 255, 255, 1)" stroke-width="1.5"></path><path d="M522.93 403.47L487.75 550.26" stroke="rgba(255, 255, 255, 1)" stroke-width="1.5"></path><path d="M487.75 550.26L487.75 550.26" stroke="rgba(255, 255, 255, 1)" stroke-width="1.5"></path><path d="M487.75 550.26L523.21 639.7" stroke="rgba(255, 255, 255, 1)" stroke-width="1.5"></path><path d="M487.75 550.26L639.49 489.59" stroke="rgba(255, 255, 255, 1)" stroke-width="1.5"></path><path d="M487.75 550.26L340.41 689.05" stroke="rgba(255, 255, 255, 1)" stroke-width="1.5"></path><path d="M523.21 639.7L523.21 639.7" stroke="rgba(255, 255, 255, 1)" stroke-width="1.5"></path><path d="M523.21 639.7L680 692.06" stroke="rgba(255, 255, 255, 1)" stroke-width="1.5"></path><path d="M523.21 639.7L340.41 689.05" stroke="rgba(255, 255, 255, 1)" stroke-width="1.5"></path><path d="M523.21 639.7L639.49 489.59" stroke="rgba(255, 255, 255, 1)" stroke-width="1.5"></path><path d="M523.21 639.7L522.93 403.47" stroke="rgba(255, 255, 255, 1)" stroke-width="1.5"></path><path d="M649.11 379.22L649.11 379.22" stroke="rgba(255, 255, 255, 1)" stroke-width="1.5"></path><path d="M649.11 379.22L639.49 489.59" stroke="rgba(255, 255, 255, 1)" stroke-width="1.5"></path><path d="M649.11 379.22L818.48 398.6" stroke="rgba(255, 255, 255, 1)" stroke-width="1.5"></path><path d="M649.11 379.22L487.75 550.26" stroke="rgba(255, 255, 255, 1)" stroke-width="1.5"></path><path d="M649.11 379.22L839.32 238.57" stroke="rgba(255, 255, 255, 1)" stroke-width="1.5"></path><path d="M639.49 489.59L639.49 489.59" stroke="rgba(255, 255, 255, 1)" stroke-width="1.5"></path><path d="M639.49 489.59L818.48 398.6" stroke="rgba(255, 255, 255, 1)" stroke-width="1.5"></path><path d="M639.49 489.59L680 692.06" stroke="rgba(255, 255, 255, 1)" stroke-width="1.5"></path><path d="M680 692.06L680 692.06" stroke="rgba(255, 255, 255, 1)" stroke-width="1.5"></path><path d="M680 692.06L792.79 670.15" stroke="rgba(255, 255, 255, 1)" stroke-width="1.5"></path><path d="M853.27 88.61L853.27 88.61" stroke="rgba(255, 255, 255, 1)" stroke-width="1.5"></path><path d="M853.27 88.61L980.45 50.73" stroke="rgba(255, 255, 255, 1)" stroke-width="1.5"></path><path d="M853.27 88.61L839.32 238.57" stroke="rgba(255, 255, 255, 1)" stroke-width="1.5"></path><path d="M853.27 88.61L945.18 231.95" stroke="rgba(255, 255, 255, 1)" stroke-width="1.5"></path><path d="M839.32 238.57L839.32 238.57" stroke="rgba(255, 255, 255, 1)" stroke-width="1.5"></path><path d="M839.32 238.57L945.18 231.95" stroke="rgba(255, 255, 255, 1)" stroke-width="1.5"></path><path d="M839.32 238.57L818.48 398.6" stroke="rgba(255, 255, 255, 1)" stroke-width="1.5"></path><path d="M818.48 398.6L818.48 398.6" stroke="rgba(255, 255, 255, 1)" stroke-width="1.5"></path><path d="M818.48 398.6L965.27 373.86" stroke="rgba(255, 255, 255, 1)" stroke-width="1.5"></path><path d="M818.48 398.6L953.09 513.4" stroke="rgba(255, 255, 255, 1)" stroke-width="1.5"></path><path d="M792.79 670.15L792.79 670.15" stroke="rgba(255, 255, 255, 1)" stroke-width="1.5"></path><path d="M792.79 670.15L960.16 694.39" stroke="rgba(255, 255, 255, 1)" stroke-width="1.5"></path><path d="M792.79 670.15L953.09 513.4" stroke="rgba(255, 255, 255, 1)" stroke-width="1.5"></path><path d="M980.45 50.73L980.45 50.73" stroke="rgba(255, 255, 255, 1)" stroke-width="1.5"></path><path d="M980.45 50.73L1135.55 92.14" stroke="rgba(255, 255, 255, 1)" stroke-width="1.5"></path><path d="M980.45 50.73L945.18 231.95" stroke="rgba(255, 255, 255, 1)" stroke-width="1.5"></path><path d="M980.45 50.73L1148.64 -58.33" stroke="rgba(255, 255, 255, 1)" stroke-width="1.5"></path><path d="M945.18 231.95L945.18 231.95" stroke="rgba(255, 255, 255, 1)" stroke-width="1.5"></path><path d="M945.18 231.95L965.27 373.86" stroke="rgba(255, 255, 255, 1)" stroke-width="1.5"></path><path d="M965.27 373.86L965.27 373.86" stroke="rgba(255, 255, 255, 1)" stroke-width="1.5"></path><path d="M965.27 373.86L953.09 513.4" stroke="rgba(255, 255, 255, 1)" stroke-width="1.5"></path><path d="M965.27 373.86L1135.62 411.34" stroke="rgba(255, 255, 255, 1)" stroke-width="1.5"></path><path d="M953.09 513.4L953.09 513.4" stroke="rgba(255, 255, 255, 1)" stroke-width="1.5"></path><path d="M953.09 513.4L960.16 694.39" stroke="rgba(255, 255, 255, 1)" stroke-width="1.5"></path><path d="M953.09 513.4L1135.62 411.34" stroke="rgba(255, 255, 255, 1)" stroke-width="1.5"></path><path d="M960.16 694.39L960.16 694.39" stroke="rgba(255, 255, 255, 1)" stroke-width="1.5"></path><path d="M1148.64 -58.33L1148.64 -58.33" stroke="rgba(255, 255, 255, 1)" stroke-width="1.5"></path><path d="M1148.64 -58.33L1247.94 -67.14" stroke="rgba(255, 255, 255, 1)" stroke-width="1.5"></path><path d="M1148.64 -58.33L1135.55 92.14" stroke="rgba(255, 255, 255, 1)" stroke-width="1.5"></path><path d="M1148.64 -58.33L1299.03 93.37" stroke="rgba(255, 255, 255, 1)" stroke-width="1.5"></path><path d="M1135.55 92.14L1135.55 92.14" stroke="rgba(255, 255, 255, 1)" stroke-width="1.5"></path><path d="M1135.55 92.14L1152.28 197.8" stroke="rgba(255, 255, 255, 1)" stroke-width="1.5"></path><path d="M1135.55 92.14L1299.03 93.37" stroke="rgba(255, 255, 255, 1)" stroke-width="1.5"></path><path d="M1135.55 92.14L1247.94 -67.14" stroke="rgba(255, 255, 255, 1)" stroke-width="1.5"></path><path d="M1152.28 197.8L1152.28 197.8" stroke="rgba(255, 255, 255, 1)" stroke-width="1.5"></path><path d="M1152.28 197.8L1312.44 214.75" stroke="rgba(255, 255, 255, 1)" stroke-width="1.5"></path><path d="M1152.28 197.8L1299.03 93.37" stroke="rgba(255, 255, 255, 1)" stroke-width="1.5"></path><path d="M1152.28 197.8L945.18 231.95" stroke="rgba(255, 255, 255, 1)" stroke-width="1.5"></path><path d="M1152.28 197.8L1135.62 411.34" stroke="rgba(255, 255, 255, 1)" stroke-width="1.5"></path><path d="M1152.28 197.8L980.45 50.73" stroke="rgba(255, 255, 255, 1)" stroke-width="1.5"></path><path d="M1135.62 411.34L1135.62 411.34" stroke="rgba(255, 255, 255, 1)" stroke-width="1.5"></path><path d="M1135.62 411.34L1298.71 375.73" stroke="rgba(255, 255, 255, 1)" stroke-width="1.5"></path><path d="M1135.62 411.34L1272.85 547.22" stroke="rgba(255, 255, 255, 1)" stroke-width="1.5"></path><path d="M1135.62 411.34L1137.19 650.42" stroke="rgba(255, 255, 255, 1)" stroke-width="1.5"></path><path d="M1137.19 650.42L1137.19 650.42" stroke="rgba(255, 255, 255, 1)" stroke-width="1.5"></path><path d="M1137.19 650.42L1261.46 687.29" stroke="rgba(255, 255, 255, 1)" stroke-width="1.5"></path><path d="M1137.19 650.42L1272.85 547.22" stroke="rgba(255, 255, 255, 1)" stroke-width="1.5"></path><path d="M1137.19 650.42L960.16 694.39" stroke="rgba(255, 255, 255, 1)" stroke-width="1.5"></path><path d="M1247.94 -67.14L1247.94 -67.14" stroke="rgba(255, 255, 255, 1)" stroke-width="1.5"></path><path d="M1247.94 -67.14L1299.03 93.37" stroke="rgba(255, 255, 255, 1)" stroke-width="1.5"></path><path d="M1299.03 93.37L1299.03 93.37" stroke="rgba(255, 255, 255, 1)" stroke-width="1.5"></path><path d="M1299.03 93.37L1312.44 214.75" stroke="rgba(255, 255, 255, 1)" stroke-width="1.5"></path><path d="M1312.44 214.75L1312.44 214.75" stroke="rgba(255, 255, 255, 1)" stroke-width="1.5"></path><path d="M1312.44 214.75L1395.82 214.93" stroke="rgba(255, 255, 255, 1)" stroke-width="1.5"></path><path d="M1298.71 375.73L1298.71 375.73" stroke="rgba(255, 255, 255, 1)" stroke-width="1.5"></path><path d="M1298.71 375.73L1312.44 214.75" stroke="rgba(255, 255, 255, 1)" stroke-width="1.5"></path><path d="M1272.85 547.22L1272.85 547.22" stroke="rgba(255, 255, 255, 1)" stroke-width="1.5"></path><path d="M1272.85 547.22L1261.46 687.29" stroke="rgba(255, 255, 255, 1)" stroke-width="1.5"></path><path d="M1272.85 547.22L1298.71 375.73" stroke="rgba(255, 255, 255, 1)" stroke-width="1.5"></path><path d="M1261.46 687.29L1261.46 687.29" stroke="rgba(255, 255, 255, 1)" stroke-width="1.5"></path><path d="M1261.46 687.29L1408.51 707.6" stroke="rgba(255, 255, 255, 1)" stroke-width="1.5"></path><path d="M1261.46 687.29L1452.63 504.13" stroke="rgba(255, 255, 255, 1)" stroke-width="1.5"></path><path d="M1452.53 -109.08L1452.53 -109.08" stroke="rgba(255, 255, 255, 1)" stroke-width="1.5"></path><path d="M1452.53 -109.08L1569.15 -92.84" stroke="rgba(255, 255, 255, 1)" stroke-width="1.5"></path><path d="M1452.53 -109.08L1420.98 63.61" stroke="rgba(255, 255, 255, 1)" stroke-width="1.5"></path><path d="M1420.98 63.61L1420.98 63.61" stroke="rgba(255, 255, 255, 1)" stroke-width="1.5"></path><path d="M1420.98 63.61L1540.3 54.82" stroke="rgba(255, 255, 255, 1)" stroke-width="1.5"></path><path d="M1420.98 63.61L1299.03 93.37" stroke="rgba(255, 255, 255, 1)" stroke-width="1.5"></path><path d="M1420.98 63.61L1395.82 214.93" stroke="rgba(255, 255, 255, 1)" stroke-width="1.5"></path><path d="M1395.82 214.93L1395.82 214.93" stroke="rgba(255, 255, 255, 1)" stroke-width="1.5"></path><path d="M1395.82 214.93L1299.03 93.37" stroke="rgba(255, 255, 255, 1)" stroke-width="1.5"></path><path d="M1395.82 214.93L1578.58 236.01" stroke="rgba(255, 255, 255, 1)" stroke-width="1.5"></path><path d="M1452.63 504.13L1452.63 504.13" stroke="rgba(255, 255, 255, 1)" stroke-width="1.5"></path><path d="M1452.63 504.13L1612.18 535.34" stroke="rgba(255, 255, 255, 1)" stroke-width="1.5"></path><path d="M1408.51 707.6L1408.51 707.6" stroke="rgba(255, 255, 255, 1)" stroke-width="1.5"></path><path d="M1408.51 707.6L1572.05 693.03" stroke="rgba(255, 255, 255, 1)" stroke-width="1.5"></path><path d="M1408.51 707.6L1452.63 504.13" stroke="rgba(255, 255, 255, 1)" stroke-width="1.5"></path><path d="M1408.51 707.6L1272.85 547.22" stroke="rgba(255, 255, 255, 1)" stroke-width="1.5"></path><path d="M1408.51 707.6L1612.18 535.34" stroke="rgba(255, 255, 255, 1)" stroke-width="1.5"></path><path d="M1408.51 707.6L1137.19 650.42" stroke="rgba(255, 255, 255, 1)" stroke-width="1.5"></path><path d="M1569.15 -92.84L1569.15 -92.84" stroke="rgba(255, 255, 255, 1)" stroke-width="1.5"></path><path d="M1569.15 -92.84L1540.3 54.82" stroke="rgba(255, 255, 255, 1)" stroke-width="1.5"></path><path d="M1540.3 54.82L1540.3 54.82" stroke="rgba(255, 255, 255, 1)" stroke-width="1.5"></path><path d="M1540.3 54.82L1578.58 236.01" stroke="rgba(255, 255, 255, 1)" stroke-width="1.5"></path><path d="M1578.58 236.01L1578.58 236.01" stroke="rgba(255, 255, 255, 1)" stroke-width="1.5"></path><path d="M1578.58 236.01L1420.98 63.61" stroke="rgba(255, 255, 255, 1)" stroke-width="1.5"></path><path d="M1578.58 236.01L1312.44 214.75" stroke="rgba(255, 255, 255, 1)" stroke-width="1.5"></path><path d="M1612.18 535.34L1612.18 535.34" stroke="rgba(255, 255, 255, 1)" stroke-width="1.5"></path><path d="M1612.18 535.34L1572.05 693.03" stroke="rgba(255, 255, 255, 1)" stroke-width="1.5"></path><path d="M1572.05 693.03L1572.05 693.03" stroke="rgba(255, 255, 255, 1)" stroke-width="1.5"></path><path d="M1572.05 693.03L1452.63 504.13" stroke="rgba(255, 255, 255, 1)" stroke-width="1.5"></path><path d="M1572.05 693.03L1261.46 687.29" stroke="rgba(255, 255, 255, 1)" stroke-width="1.5"></path><circle r="5" cx="-52.83" cy="550.09" fill="rgba(255, 255, 255, 1)"></circle><circle r="5" cx="-78.85" cy="691.37" fill="rgba(255, 255, 255, 1)"></circle><circle r="5" cx="54.19" cy="406.13" fill="rgba(255, 255, 255, 1)"></circle><circle r="5" cx="94.57" cy="533.71" fill="rgba(255, 255, 255, 1)"></circle><circle r="5" cx="59.83" cy="707.25" fill="rgba(255, 255, 255, 1)"></circle><circle r="5" cx="234.33" cy="361.9" fill="rgba(255, 255, 255, 1)"></circle><circle r="5" cx="208.31" cy="561.05" fill="rgba(255, 255, 255, 1)"></circle><circle r="5" cx="261.09" cy="642.22" fill="rgba(255, 255, 255, 1)"></circle><circle r="5" cx="359.21" cy="363.29" fill="rgba(255, 255, 255, 1)"></circle><circle r="5" cx="393.85" cy="510.11" fill="rgba(255, 255, 255, 1)"></circle><circle r="5" cx="340.41" cy="689.05" fill="rgba(255, 255, 255, 1)"></circle><circle r="5" cx="522.93" cy="403.47" fill="rgba(255, 255, 255, 1)"></circle><circle r="5" cx="487.75" cy="550.26" fill="rgba(255, 255, 255, 1)"></circle><circle r="5" cx="523.21" cy="639.7" fill="rgba(255, 255, 255, 1)"></circle><circle r="5" cx="649.11" cy="379.22" fill="rgba(255, 255, 255, 1)"></circle><circle r="5" cx="639.49" cy="489.59" fill="rgba(255, 255, 255, 1)"></circle><circle r="5" cx="680" cy="692.06" fill="rgba(255, 255, 255, 1)"></circle><circle r="5" cx="853.27" cy="88.61" fill="rgba(255, 255, 255, 1)"></circle><circle r="5" cx="839.32" cy="238.57" fill="rgba(255, 255, 255, 1)"></circle><circle r="5" cx="818.48" cy="398.6" fill="rgba(255, 255, 255, 1)"></circle><circle r="5" cx="792.79" cy="670.15" fill="rgba(255, 255, 255, 1)"></circle><circle r="5" cx="980.45" cy="50.73" fill="rgba(255, 255, 255, 1)"></circle><circle r="5" cx="945.18" cy="231.95" fill="rgba(255, 255, 255, 1)"></circle><circle r="5" cx="965.27" cy="373.86" fill="rgba(255, 255, 255, 1)"></circle><circle r="5" cx="953.09" cy="513.4" fill="rgba(255, 255, 255, 1)"></circle><circle r="5" cx="960.16" cy="694.39" fill="rgba(255, 255, 255, 1)"></circle><circle r="5" cx="1148.64" cy="-58.33" fill="rgba(255, 255, 255, 1)"></circle><circle r="5" cx="1135.55" cy="92.14" fill="rgba(255, 255, 255, 1)"></circle><circle r="5" cx="1152.28" cy="197.8" fill="rgba(255, 255, 255, 1)"></circle><circle r="5" cx="1135.62" cy="411.34" fill="rgba(255, 255, 255, 1)"></circle><circle r="5" cx="1137.19" cy="650.42" fill="rgba(255, 255, 255, 1)"></circle><circle r="5" cx="1247.94" cy="-67.14" fill="rgba(255, 255, 255, 1)"></circle><circle r="5" cx="1299.03" cy="93.37" fill="rgba(255, 255, 255, 1)"></circle><circle r="5" cx="1312.44" cy="214.75" fill="rgba(255, 255, 255, 1)"></circle><circle r="5" cx="1298.71" cy="375.73" fill="rgba(255, 255, 255, 1)"></circle><circle r="5" cx="1272.85" cy="547.22" fill="rgba(255, 255, 255, 1)"></circle><circle r="5" cx="1261.46" cy="687.29" fill="rgba(255, 255, 255, 1)"></circle><circle r="5" cx="1452.53" cy="-109.08" fill="rgba(255, 255, 255, 1)"></circle><circle r="5" cx="1420.98" cy="63.61" fill="rgba(255, 255, 255, 1)"></circle><circle r="5" cx="1395.82" cy="214.93" fill="rgba(255, 255, 255, 1)"></circle><circle r="5" cx="1452.63" cy="504.13" fill="rgba(255, 255, 255, 1)"></circle><circle r="5" cx="1408.51" cy="707.6" fill="rgba(255, 255, 255, 1)"></circle><circle r="5" cx="1569.15" cy="-92.84" fill="rgba(255, 255, 255, 1)"></circle><circle r="5" cx="1540.3" cy="54.82" fill="rgba(255, 255, 255, 1)"></circle><circle r="5" cx="1578.58" cy="236.01" fill="rgba(255, 255, 255, 1)"></circle><circle r="5" cx="1612.18" cy="535.34" fill="rgba(255, 255, 255, 1)"></circle><circle r="5" cx="1572.05" cy="693.03" fill="rgba(255, 255, 255, 1)"></circle><path d="M-56.66 689.03L-56.66 689.03" stroke="hsl(0, 0%, 100%)" stroke-width="1.5"></path><path d="M-56.66 689.03L104.46 673.92" stroke="hsl(0, 0%, 100%)" stroke-width="1.5"></path><path d="M-56.66 689.03L-110.28 534.34" stroke="hsl(0, 0%, 100%)" stroke-width="1.5"></path><path d="M-56.66 689.03L42.83 525.15" stroke="hsl(0, 0%, 100%)" stroke-width="1.5"></path><path d="M1269.07 489.05L1269.07 489.05" stroke="hsl(0, 0%, 100%)" stroke-width="1.5"></path><path d="M1269.07 489.05L1282.54 365.61" stroke="hsl(0, 0%, 100%)" stroke-width="1.5"></path><path d="M1269.07 489.05L1401.93 530.05" stroke="hsl(0, 0%, 100%)" stroke-width="1.5"></path><path d="M1269.07 489.05L1399.14 353.49" stroke="hsl(0, 0%, 100%)" stroke-width="1.5"></path><path d="M1269.07 489.05L1251.84 684.3" stroke="hsl(0, 0%, 100%)" stroke-width="1.5"></path><path d="M1269.07 489.05L1091.6 360.19" stroke="hsl(0, 0%, 100%)" stroke-width="1.5"></path><path d="M1251.84 684.3L1251.84 684.3" stroke="hsl(0, 0%, 100%)" stroke-width="1.5"></path><path d="M1251.84 684.3L1117.45 697.86" stroke="hsl(0, 0%, 100%)" stroke-width="1.5"></path><path d="M1251.84 684.3L1457.82 655.03" stroke="hsl(0, 0%, 100%)" stroke-width="1.5"></path><path d="M1251.84 684.3L1401.93 530.05" stroke="hsl(0, 0%, 100%)" stroke-width="1.5"></path><path d="M1251.84 684.3L951.16 638.76" stroke="hsl(0, 0%, 100%)" stroke-width="1.5"></path><path d="M1251.84 684.3L1282.54 365.61" stroke="hsl(0, 0%, 100%)" stroke-width="1.5"></path><path d="M1457.82 655.03L1457.82 655.03" stroke="hsl(0, 0%, 100%)" stroke-width="1.5"></path><path d="M1457.82 655.03L1587.38 680.86" stroke="hsl(0, 0%, 100%)" stroke-width="1.5"></path><path d="M1457.82 655.03L1401.93 530.05" stroke="hsl(0, 0%, 100%)" stroke-width="1.5"></path><path d="M-110.28 534.34L-110.28 534.34" stroke="hsl(0, 0%, 100%)" stroke-width="1.5"></path><path d="M-110.28 534.34L42.83 525.15" stroke="hsl(0, 0%, 100%)" stroke-width="1.5"></path><path d="M-110.28 534.34L104.46 673.92" stroke="hsl(0, 0%, 100%)" stroke-width="1.5"></path><path d="M-110.28 534.34L189.42 674" stroke="hsl(0, 0%, 100%)" stroke-width="1.5"></path><path d="M42.83 525.15L42.83 525.15" stroke="hsl(0, 0%, 100%)" stroke-width="1.5"></path><path d="M42.83 525.15L104.46 673.92" stroke="hsl(0, 0%, 100%)" stroke-width="1.5"></path><path d="M42.83 525.15L241.05 540.8" stroke="hsl(0, 0%, 100%)" stroke-width="1.5"></path><path d="M104.46 673.92L104.46 673.92" stroke="hsl(0, 0%, 100%)" stroke-width="1.5"></path><path d="M104.46 673.92L189.42 674" stroke="hsl(0, 0%, 100%)" stroke-width="1.5"></path><path d="M104.46 673.92L241.05 540.8" stroke="hsl(0, 0%, 100%)" stroke-width="1.5"></path><path d="M241.05 540.8L241.05 540.8" stroke="hsl(0, 0%, 100%)" stroke-width="1.5"></path><path d="M241.05 540.8L344.83 491.4" stroke="hsl(0, 0%, 100%)" stroke-width="1.5"></path><path d="M189.42 674L189.42 674" stroke="hsl(0, 0%, 100%)" stroke-width="1.5"></path><path d="M189.42 674L241.05 540.8" stroke="hsl(0, 0%, 100%)" stroke-width="1.5"></path><path d="M189.42 674L381.4 697.01" stroke="hsl(0, 0%, 100%)" stroke-width="1.5"></path><path d="M189.42 674L42.83 525.15" stroke="hsl(0, 0%, 100%)" stroke-width="1.5"></path><path d="M344.83 491.4L344.83 491.4" stroke="hsl(0, 0%, 100%)" stroke-width="1.5"></path><path d="M344.83 491.4L495.84 506.28" stroke="hsl(0, 0%, 100%)" stroke-width="1.5"></path><path d="M344.83 491.4L381.4 697.01" stroke="hsl(0, 0%, 100%)" stroke-width="1.5"></path><path d="M344.83 491.4L189.42 674" stroke="hsl(0, 0%, 100%)" stroke-width="1.5"></path><path d="M344.83 491.4L542.75 649.82" stroke="hsl(0, 0%, 100%)" stroke-width="1.5"></path><path d="M344.83 491.4L104.46 673.92" stroke="hsl(0, 0%, 100%)" stroke-width="1.5"></path><path d="M381.4 697.01L381.4 697.01" stroke="hsl(0, 0%, 100%)" stroke-width="1.5"></path><path d="M381.4 697.01L542.75 649.82" stroke="hsl(0, 0%, 100%)" stroke-width="1.5"></path><path d="M381.4 697.01L241.05 540.8" stroke="hsl(0, 0%, 100%)" stroke-width="1.5"></path><path d="M495.84 506.28L495.84 506.28" stroke="hsl(0, 0%, 100%)" stroke-width="1.5"></path><path d="M495.84 506.28L542.75 649.82" stroke="hsl(0, 0%, 100%)" stroke-width="1.5"></path><path d="M495.84 506.28L705.97 494.92" stroke="hsl(0, 0%, 100%)" stroke-width="1.5"></path><path d="M495.84 506.28L686.44 408.15" stroke="hsl(0, 0%, 100%)" stroke-width="1.5"></path><path d="M495.84 506.28L381.4 697.01" stroke="hsl(0, 0%, 100%)" stroke-width="1.5"></path><path d="M495.84 506.28L666.68 682.72" stroke="hsl(0, 0%, 100%)" stroke-width="1.5"></path><path d="M542.75 649.82L542.75 649.82" stroke="hsl(0, 0%, 100%)" stroke-width="1.5"></path><path d="M542.75 649.82L666.68 682.72" stroke="hsl(0, 0%, 100%)" stroke-width="1.5"></path><path d="M686.44 408.15L686.44 408.15" stroke="hsl(0, 0%, 100%)" stroke-width="1.5"></path><path d="M686.44 408.15L705.97 494.92" stroke="hsl(0, 0%, 100%)" stroke-width="1.5"></path><path d="M686.44 408.15L862.04 390.84" stroke="hsl(0, 0%, 100%)" stroke-width="1.5"></path><path d="M686.44 408.15L851.11 538.2" stroke="hsl(0, 0%, 100%)" stroke-width="1.5"></path><path d="M686.44 408.15L666.68 682.72" stroke="hsl(0, 0%, 100%)" stroke-width="1.5"></path><path d="M686.44 408.15L542.75 649.82" stroke="hsl(0, 0%, 100%)" stroke-width="1.5"></path><path d="M705.97 494.92L705.97 494.92" stroke="hsl(0, 0%, 100%)" stroke-width="1.5"></path><path d="M705.97 494.92L851.11 538.2" stroke="hsl(0, 0%, 100%)" stroke-width="1.5"></path><path d="M705.97 494.92L862.04 390.84" stroke="hsl(0, 0%, 100%)" stroke-width="1.5"></path><path d="M705.97 494.92L666.68 682.72" stroke="hsl(0, 0%, 100%)" stroke-width="1.5"></path><path d="M666.68 682.72L666.68 682.72" stroke="hsl(0, 0%, 100%)" stroke-width="1.5"></path><path d="M666.68 682.72L844.26 653.43" stroke="hsl(0, 0%, 100%)" stroke-width="1.5"></path><path d="M666.68 682.72L851.11 538.2" stroke="hsl(0, 0%, 100%)" stroke-width="1.5"></path><path d="M862.04 390.84L862.04 390.84" stroke="hsl(0, 0%, 100%)" stroke-width="1.5"></path><path d="M862.04 390.84L991.35 340.47" stroke="hsl(0, 0%, 100%)" stroke-width="1.5"></path><path d="M862.04 390.84L851.11 538.2" stroke="hsl(0, 0%, 100%)" stroke-width="1.5"></path><path d="M862.04 390.84L980.62 499.81" stroke="hsl(0, 0%, 100%)" stroke-width="1.5"></path><path d="M862.04 390.84L1091.6 360.19" stroke="hsl(0, 0%, 100%)" stroke-width="1.5"></path><path d="M851.11 538.2L851.11 538.2" stroke="hsl(0, 0%, 100%)" stroke-width="1.5"></path><path d="M851.11 538.2L844.26 653.43" stroke="hsl(0, 0%, 100%)" stroke-width="1.5"></path><path d="M844.26 653.43L844.26 653.43" stroke="hsl(0, 0%, 100%)" stroke-width="1.5"></path><path d="M844.26 653.43L951.16 638.76" stroke="hsl(0, 0%, 100%)" stroke-width="1.5"></path><path d="M844.26 653.43L980.62 499.81" stroke="hsl(0, 0%, 100%)" stroke-width="1.5"></path><path d="M844.26 653.43L705.97 494.92" stroke="hsl(0, 0%, 100%)" stroke-width="1.5"></path><path d="M991.35 340.47L991.35 340.47" stroke="hsl(0, 0%, 100%)" stroke-width="1.5"></path><path d="M991.35 340.47L1091.6 360.19" stroke="hsl(0, 0%, 100%)" stroke-width="1.5"></path><path d="M991.35 340.47L980.62 499.81" stroke="hsl(0, 0%, 100%)" stroke-width="1.5"></path><path d="M980.62 499.81L980.62 499.81" stroke="hsl(0, 0%, 100%)" stroke-width="1.5"></path><path d="M980.62 499.81L851.11 538.2" stroke="hsl(0, 0%, 100%)" stroke-width="1.5"></path><path d="M980.62 499.81L951.16 638.76" stroke="hsl(0, 0%, 100%)" stroke-width="1.5"></path><path d="M951.16 638.76L951.16 638.76" stroke="hsl(0, 0%, 100%)" stroke-width="1.5"></path><path d="M951.16 638.76L851.11 538.2" stroke="hsl(0, 0%, 100%)" stroke-width="1.5"></path><path d="M951.16 638.76L1117.45 697.86" stroke="hsl(0, 0%, 100%)" stroke-width="1.5"></path><path d="M951.16 638.76L862.04 390.84" stroke="hsl(0, 0%, 100%)" stroke-width="1.5"></path><path d="M951.16 638.76L705.97 494.92" stroke="hsl(0, 0%, 100%)" stroke-width="1.5"></path><path d="M1152.62 -112.19L1152.62 -112.19" stroke="hsl(0, 0%, 100%)" stroke-width="1.5"></path><path d="M1152.62 -112.19L1290.65 -52.64" stroke="hsl(0, 0%, 100%)" stroke-width="1.5"></path><path d="M1152.62 -112.19L1303.07 85.91" stroke="hsl(0, 0%, 100%)" stroke-width="1.5"></path><path d="M1152.62 -112.19L1433 -40.67" stroke="hsl(0, 0%, 100%)" stroke-width="1.5"></path><path d="M1152.62 -112.19L1146.09 220.36" stroke="hsl(0, 0%, 100%)" stroke-width="1.5"></path><path d="M1152.62 -112.19L1269.17 213.12" stroke="hsl(0, 0%, 100%)" stroke-width="1.5"></path><path d="M1146.09 220.36L1146.09 220.36" stroke="hsl(0, 0%, 100%)" stroke-width="1.5"></path><path d="M1146.09 220.36L1269.17 213.12" stroke="hsl(0, 0%, 100%)" stroke-width="1.5"></path><path d="M1146.09 220.36L1091.6 360.19" stroke="hsl(0, 0%, 100%)" stroke-width="1.5"></path><path d="M1091.6 360.19L1091.6 360.19" stroke="hsl(0, 0%, 100%)" stroke-width="1.5"></path><path d="M1091.6 360.19L980.62 499.81" stroke="hsl(0, 0%, 100%)" stroke-width="1.5"></path><path d="M1091.6 360.19L1282.54 365.61" stroke="hsl(0, 0%, 100%)" stroke-width="1.5"></path><path d="M1117.45 697.86L1117.45 697.86" stroke="hsl(0, 0%, 100%)" stroke-width="1.5"></path><path d="M1117.45 697.86L980.62 499.81" stroke="hsl(0, 0%, 100%)" stroke-width="1.5"></path><path d="M1117.45 697.86L1269.07 489.05" stroke="hsl(0, 0%, 100%)" stroke-width="1.5"></path><path d="M1117.45 697.86L844.26 653.43" stroke="hsl(0, 0%, 100%)" stroke-width="1.5"></path><path d="M1117.45 697.86L851.11 538.2" stroke="hsl(0, 0%, 100%)" stroke-width="1.5"></path><path d="M1290.65 -52.64L1290.65 -52.64" stroke="hsl(0, 0%, 100%)" stroke-width="1.5"></path><path d="M1290.65 -52.64L1303.07 85.91" stroke="hsl(0, 0%, 100%)" stroke-width="1.5"></path><path d="M1290.65 -52.64L1433 -40.67" stroke="hsl(0, 0%, 100%)" stroke-width="1.5"></path><path d="M1290.65 -52.64L1445.96 88.27" stroke="hsl(0, 0%, 100%)" stroke-width="1.5"></path><path d="M1290.65 -52.64L1269.17 213.12" stroke="hsl(0, 0%, 100%)" stroke-width="1.5"></path><path d="M1303.07 85.91L1303.07 85.91" stroke="hsl(0, 0%, 100%)" stroke-width="1.5"></path><path d="M1303.07 85.91L1269.17 213.12" stroke="hsl(0, 0%, 100%)" stroke-width="1.5"></path><path d="M1303.07 85.91L1445.96 88.27" stroke="hsl(0, 0%, 100%)" stroke-width="1.5"></path><path d="M1269.17 213.12L1269.17 213.12" stroke="hsl(0, 0%, 100%)" stroke-width="1.5"></path><path d="M1269.17 213.12L1282.54 365.61" stroke="hsl(0, 0%, 100%)" stroke-width="1.5"></path><path d="M1269.17 213.12L1421.82 260.46" stroke="hsl(0, 0%, 100%)" stroke-width="1.5"></path><path d="M1282.54 365.61L1282.54 365.61" stroke="hsl(0, 0%, 100%)" stroke-width="1.5"></path><path d="M1282.54 365.61L1399.14 353.49" stroke="hsl(0, 0%, 100%)" stroke-width="1.5"></path><path d="M1282.54 365.61L1421.82 260.46" stroke="hsl(0, 0%, 100%)" stroke-width="1.5"></path><path d="M1433 -40.67L1433 -40.67" stroke="hsl(0, 0%, 100%)" stroke-width="1.5"></path><path d="M1433 -40.67L1445.96 88.27" stroke="hsl(0, 0%, 100%)" stroke-width="1.5"></path><path d="M1433 -40.67L1560.52 -101.3" stroke="hsl(0, 0%, 100%)" stroke-width="1.5"></path><path d="M1433 -40.67L1303.07 85.91" stroke="hsl(0, 0%, 100%)" stroke-width="1.5"></path><path d="M1433 -40.67L1605.15 61.12" stroke="hsl(0, 0%, 100%)" stroke-width="1.5"></path><path d="M1445.96 88.27L1445.96 88.27" stroke="hsl(0, 0%, 100%)" stroke-width="1.5"></path><path d="M1445.96 88.27L1605.15 61.12" stroke="hsl(0, 0%, 100%)" stroke-width="1.5"></path><path d="M1421.82 260.46L1421.82 260.46" stroke="hsl(0, 0%, 100%)" stroke-width="1.5"></path><path d="M1421.82 260.46L1399.14 353.49" stroke="hsl(0, 0%, 100%)" stroke-width="1.5"></path><path d="M1421.82 260.46L1445.96 88.27" stroke="hsl(0, 0%, 100%)" stroke-width="1.5"></path><path d="M1421.82 260.46L1611.42 227.27" stroke="hsl(0, 0%, 100%)" stroke-width="1.5"></path><path d="M1399.14 353.49L1399.14 353.49" stroke="hsl(0, 0%, 100%)" stroke-width="1.5"></path><path d="M1399.14 353.49L1401.93 530.05" stroke="hsl(0, 0%, 100%)" stroke-width="1.5"></path><path d="M1401.93 530.05L1401.93 530.05" stroke="hsl(0, 0%, 100%)" stroke-width="1.5"></path><path d="M1560.52 -101.3L1560.52 -101.3" stroke="hsl(0, 0%, 100%)" stroke-width="1.5"></path><path d="M1560.52 -101.3L1605.15 61.12" stroke="hsl(0, 0%, 100%)" stroke-width="1.5"></path><path d="M1605.15 61.12L1605.15 61.12" stroke="hsl(0, 0%, 100%)" stroke-width="1.5"></path><path d="M1605.15 61.12L1611.42 227.27" stroke="hsl(0, 0%, 100%)" stroke-width="1.5"></path><path d="M1611.42 227.27L1611.42 227.27" stroke="hsl(0, 0%, 100%)" stroke-width="1.5"></path><path d="M1611.42 227.27L1445.96 88.27" stroke="hsl(0, 0%, 100%)" stroke-width="1.5"></path><path d="M1611.42 227.27L1399.14 353.49" stroke="hsl(0, 0%, 100%)" stroke-width="1.5"></path><path d="M1587.38 680.86L1587.38 680.86" stroke="hsl(0, 0%, 100%)" stroke-width="1.5"></path><path d="M1587.38 680.86L1401.93 530.05" stroke="hsl(0, 0%, 100%)" stroke-width="1.5"></path><circle r="25" cx="-56.66" cy="689.03" fill="url(#SvgjsRadialGradient1027)"></circle><circle r="25" cx="1269.07" cy="489.05" fill="url(#SvgjsRadialGradient1027)"></circle><circle r="25" cx="1251.84" cy="684.3" fill="url(#SvgjsRadialGradient1027)"></circle><circle r="25" cx="1457.82" cy="655.03" fill="url(#SvgjsRadialGradient1027)"></circle><circle r="5" cx="-110.28" cy="534.34" fill="#ffffff"></circle><circle r="5" cx="42.83" cy="525.15" fill="#ffffff"></circle><circle r="5" cx="104.46" cy="673.92" fill="#ffffff"></circle><circle r="5" cx="241.05" cy="540.8" fill="#ffffff"></circle><circle r="5" cx="189.42" cy="674" fill="#ffffff"></circle><circle r="5" cx="344.83" cy="491.4" fill="#ffffff"></circle><circle r="5" cx="381.4" cy="697.01" fill="#ffffff"></circle><circle r="5" cx="495.84" cy="506.28" fill="#ffffff"></circle><circle r="5" cx="542.75" cy="649.82" fill="#ffffff"></circle><circle r="5" cx="686.44" cy="408.15" fill="#ffffff"></circle><circle r="5" cx="705.97" cy="494.92" fill="#ffffff"></circle><circle r="5" cx="666.68" cy="682.72" fill="#ffffff"></circle><circle r="5" cx="862.04" cy="390.84" fill="#ffffff"></circle><circle r="5" cx="851.11" cy="538.2" fill="#ffffff"></circle><circle r="5" cx="844.26" cy="653.43" fill="#ffffff"></circle><circle r="5" cx="991.35" cy="340.47" fill="#ffffff"></circle><circle r="5" cx="980.62" cy="499.81" fill="#ffffff"></circle><circle r="5" cx="951.16" cy="638.76" fill="#ffffff"></circle><circle r="5" cx="1152.62" cy="-112.19" fill="#ffffff"></circle><circle r="5" cx="1146.09" cy="220.36" fill="#ffffff"></circle><circle r="5" cx="1091.6" cy="360.19" fill="#ffffff"></circle><circle r="5" cx="1117.45" cy="697.86" fill="#ffffff"></circle><circle r="5" cx="1290.65" cy="-52.64" fill="#ffffff"></circle><circle r="5" cx="1303.07" cy="85.91" fill="#ffffff"></circle><circle r="5" cx="1269.17" cy="213.12" fill="#ffffff"></circle><circle r="5" cx="1282.54" cy="365.61" fill="#ffffff"></circle><circle r="5" cx="1433" cy="-40.67" fill="#ffffff"></circle><circle r="5" cx="1445.96" cy="88.27" fill="#ffffff"></circle><circle r="5" cx="1421.82" cy="260.46" fill="#ffffff"></circle><circle r="5" cx="1399.14" cy="353.49" fill="#ffffff"></circle><circle r="5" cx="1401.93" cy="530.05" fill="#ffffff"></circle><circle r="5" cx="1560.52" cy="-101.3" fill="#ffffff"></circle><circle r="5" cx="1605.15" cy="61.12" fill="#ffffff"></circle><circle r="5" cx="1611.42" cy="227.27" fill="#ffffff"></circle><circle r="5" cx="1587.38" cy="680.86" fill="#ffffff"></circle></g><defs><mask id="SvgjsMask1026"><rect width="1440" height="560" fill="#ffffff"></rect></mask><radialGradient id="SvgjsRadialGradient1027"><stop stop-color="#ffffff" offset="0.1"></stop><stop stop-color="rgba(255, 255, 255, 1)" offset="0.2"></stop><stop stop-color="rgba(255, 255, 255, 0)" offset="1"></stop></radialGradient></defs></svg>